#!OML:ASF E:\acrobat2\Project_11_07_03\Capture day 1\Session 1\Acrobat.ASF
:FULLY-SPECIFIED
:DEGREES
226
root 7.31651 17.8793 -28.4538 -173.183 -9.03977 -181.101
lowerback 1.54867 0.0241193 -2.6999
upperback 1.69784 -0.0440701 -1.06392
thorax 0.871942 -0.0697703 0.422847
lowerneck 0.697349 2.36848 -2.95098
upperneck -2.64383 3.14551 1.92365
head -1.0123 1.572 1.05138
rclavicle 3.8266e-015 1.70955e-014
rhumerus -32.0652 8.74373 -87.1314
rradius 26.9891
rwrist -2.45611
rhand -5.36455 -33.2993
rfingers 7.12502
rthumb 20.4431 -62.2431
lclavicle 3.8266e-015 1.70955e-014
lhumerus -22.9223 -10.5542 83.9017
lradius 25.2235
lwrist 14.8769
lhand -12.5738 -11.283
lfingers 7.12502
lthumb 13.504 18.2591
rfemur -25.8272 -0.508713 20.4585
rtibia 49.279
rfoot -7.81262 -3.83129
rtoes -14.928
lfemur -17.0557 -0.820892 -21.4305
ltibia 20.7712
lfoot 0.392289 -11.6447
ltoes 27.635
227
root 7.3037 17.8847 -28.3749 -172.843 -10.4134 -182.21
lowerback 2.1327 -0.313153 -2.99221
upperback 1.76213 -0.537872 -1.43906
thorax 0.623248 -0.323831 0.209931
lowerneck 0.933628 2.49983 -2.82057
upperneck -2.80536 3.30822 1.54879
head -1.09626 1.65623 0.90636
rclavicle -1.48592e-014 -2.5842e-014
rhumerus -32.0547 9.04866 -87.2785
rradius 27.2709
rwrist -2.65698
rhand -5.24432 -33.3276
rfingers 7.12502
rthumb 20.5587 -62.259
lclavicle -1.48592e-014 -2.5842e-014
lhumerus -22.4513 -10.4209 83.8225
lradius 25.221
lwrist 14.8017
lhand -12.6342 -11.4274
lfingers 7.12502
lthumb 13.4458 18.1187
rfemur -26.2399 -2.66275 19.0721
rtibia 49.6824
rfoot -6.67213 -3.05071
rtoes -14.792
lfemur -17.3178 -1.64172 -22.7732
ltibia 20.5362
lfoot 1.35649 -11.824
ltoes 29.2049
228
root 7.35691 17.8886 -28.3216 -172.581 -10.1267 -181.411
lowerback 2.10414 -0.0343298 -2.53289
upperback 1.81603 -0.147442 -1.17084
thorax 0.683788 -0.122347 0.221778
lowerneck 0.873988 2.54996 -2.74318
upperneck -2.78319 3.3692 1.228
head -1.07163 1.69 0.793034
rclavicle 1.20762e-014 -2.50469e-014
rhumerus -32.0105 9.33454 -87.3831
rradius 27.5619
rwrist -2.89822
rhand -5.4362 -33.1091
rfingers 7.12502
rthumb 20.3743 -62.0603
lclavicle 1.20762e-014 -2.50469e-014
lhumerus -21.9243 -10.3246 83.7564
lradius 25.2163
lwrist 14.6247
lhand -12.7282 -11.3506
lfingers 7.12502
lthumb 13.3551 18.2014
rfemur -27.3355 -1.49774 20.1162
rtibia 50.0443
rfoot -5.75189 -4.03461
rtoes -14.9263
lfemur -17.9901 -1.76047 -21.6544
ltibia 20.2915
lfoot 1.23566 -11.1671
ltoes 28.2733
229
root 7.30455 17.907 -28.2282 -172.666 -12.0582 -181.922
lowerback 3.03511 -0.50972 -1.44345
upperback 2.05798 -0.803742 -1.50234
thorax 0.405443 -0.445727 -0.709044
lowerneck 0.758723 2.52228 -2.74797
upperneck -2.77031 3.32707 0.965354
head -1.04138 1.67196 0.714124
rclavicle 2.26615e-014 -1.35174e-014
rhumerus -31.8666 9.50135 -87.3936
rradius 27.8733
rwrist -3.11801
rhand -5.45642 -32.9368
rfingers 7.12502
rthumb 20.3548 -61.8901
lclavicle 2.26615e-014 -1.35174e-014
lhumerus -21.3765 -10.3904 83.7339
lradius 25.4403
lwrist 14.5436
lhand -12.759 -11.1753
lfingers 7.12502
lthumb 13.3255 18.3787
rfemur -27.2949 -4.86767 19.2903
rtibia 50.3736
rfoot -5.01258 -2.61532
rtoes -15.0896
lfemur -17.8121 -2.69311 -22.5438
ltibia 19.9187
lfoot 2.30276 -11.5796
ltoes 28.6273
230
root 7.33783 17.916 -28.1578 -172.162 -12.4777 -181.995
lowerback 3.03388 -0.435662 -1.44416
upperback 2.13219 -0.70424 -1.42905
thorax 0.483298 -0.397161 -0.636726
lowerneck 0.711876 2.52264 -2.98089
upperneck -2.7906 3.32023 0.844562
head -1.04181 1.67205 0.716274
rclavicle -2.73826e-014 -9.54166e-015
rhumerus -31.7648 9.83614 -87.2751
rradius 28.2208
rwrist -3.33387
rhand -5.41278 -32.8611
rfingers 7.12502
rthumb 20.3968 -61.8099
lclavicle -2.73826e-014 -9.54166e-015
lhumerus -20.839 -10.3597 83.8742
lradius 25.6256
lwrist 14.4226
lhand -12.8238 -11.2961
lfingers 7.12502
lthumb 13.263 18.2619
rfemur -28.3256 -5.18566 19.3596
rtibia 50.6453
rfoot -4.31923 -2.81987
rtoes -14.3663
lfemur -18.5631 -3.09666 -22.4966
ltibia 19.7182
lfoot 2.70867 -11.1434
ltoes 29.3614
231
root 7.35954 17.9253 -28.0861 -171.724 -12.9864 -181.97
lowerback 3.00289 -0.344242 -1.06684
upperback 2.22627 -0.571751 -1.40066
thorax 0.593788 -0.327667 -0.823239
lowerneck 0.088476 2.53811 -3.89607
upperneck -2.1553 3.37463 1.68459
head -0.777133 1.69846 1.14381
rclavicle -5.36719e-015 2.5842e-014
rhumerus -31.6789 10.0898 -87.1193
rradius 28.5272
rwrist -3.52469
rhand -5.35109 -32.7103
rfingers 7.12502
rthumb 20.4561 -61.6527
lclavicle -5.36719e-015 2.5842e-014
lhumerus -20.2019 -10.5912 84.0803
lradius 25.5493
lwrist 14.4868
lhand -12.9452 -11.6308
lfingers 7.12502
lthumb 13.146 17.9348
rfemur -29.2456 -5.86188 19.5227
rtibia 50.8568
rfoot -3.6586 -2.82439
rtoes -13.9638
lfemur -19.0731 -3.60135 -22.3625
ltibia 19.2358
lfoot 3.15175 -10.5565
ltoes 30.9593
